<svg width="71" height="70" viewBox="0 0 71 70" fill="none" xmlns="http://www.w3.org/2000/svg">
<g opacity="0.3">
<path d="M18.1273 63.0305C17.575 63.0305 17.1273 62.5828 17.1273 62.0305V60.7479C17.1273 53.184 23.318 47.0522 30.9547 47.0522H40.1729C47.8095 47.0522 54.0002 53.184 54.0002 60.7479V62.0305C54.0002 62.5828 53.5525 63.0305 53.0002 63.0305H18.1273Z" fill="#333333" stroke="#333333" stroke-width="2" stroke-linecap="round"/>
<path d="M35.5638 40.2045C30.4727 40.2045 26.3455 36.1166 26.3455 31.074C26.3455 26.0314 30.4727 21.9436 35.5638 21.9436C40.6547 21.9436 44.782 26.0314 44.782 31.074C44.782 36.1166 40.6547 40.2045 35.5638 40.2045Z" fill="#333333" stroke="#333333" stroke-width="2" stroke-linecap="round"/>
<path d="M59.3972 22.0112C59.5853 21.6579 60.0916 21.6579 60.2797 22.0112L61.9772 25.1979C62.0499 25.3344 62.1817 25.4295 62.3341 25.4556L65.9108 26.0686C66.3085 26.1368 66.4658 26.6236 66.1832 26.9116L63.6591 29.484C63.5497 29.5954 63.4987 29.7515 63.5211 29.906L64.0374 33.4613C64.095 33.8586 63.6846 34.1585 63.3236 33.9827L60.0574 32.392C59.9192 32.3247 59.7577 32.3247 59.6195 32.392L56.3533 33.9827C55.9923 34.1585 55.5819 33.8586 55.6395 33.4613L56.1558 29.906C56.1782 29.7515 56.1272 29.5954 56.0178 29.484L53.4937 26.9116C53.2111 26.6236 53.3684 26.1368 53.7661 26.0686L57.3428 25.4556C57.4952 25.4295 57.627 25.3344 57.6997 25.1979L59.3972 22.0112Z" fill="#333333"/>
<path d="M10.2333 22.0112C10.4214 21.6579 10.9277 21.6579 11.1159 22.0112L12.8134 25.1979C12.8861 25.3344 13.0178 25.4295 13.1702 25.4556L16.7469 26.0686C17.1446 26.1368 17.3019 26.6236 17.0193 26.9116L14.4952 29.484C14.3859 29.5954 14.3348 29.7515 14.3573 29.906L14.8735 33.4613C14.9312 33.8586 14.5207 34.1585 14.1597 33.9827L10.8935 32.392C10.7553 32.3247 10.5938 32.3247 10.4556 32.392L7.18941 33.9827C6.82846 34.1585 6.41798 33.8586 6.47567 33.4613L6.99188 29.906C7.01431 29.7515 6.96329 29.5954 6.85395 29.484L4.32983 26.9116C4.04723 26.6236 4.20457 26.1368 4.60225 26.0686L8.17894 25.4556C8.33134 25.4295 8.46309 25.3344 8.53578 25.1979L10.2333 22.0112Z" fill="#333333"/>
<path d="M19.4515 8.31551C19.6396 7.96227 20.1459 7.96227 20.3341 8.31551L22.0316 11.5022C22.1043 11.6387 22.236 11.7338 22.3884 11.76L25.9651 12.3729C26.3628 12.4411 26.5201 12.9279 26.2375 13.2159L23.7134 15.7883C23.6041 15.8997 23.553 16.0558 23.5755 16.2103L24.0917 19.7657C24.1494 20.163 23.7389 20.4628 23.3779 20.287L20.1117 18.6963C19.9735 18.629 19.812 18.629 19.6738 18.6963L16.4076 20.287C16.0467 20.4628 15.6362 20.163 15.6939 19.7657L16.2101 16.2103C16.2325 16.0558 16.1815 15.8997 16.0721 15.7883L13.548 13.2159C13.2654 12.9279 13.4228 12.4411 13.8205 12.3729L17.3971 11.76C17.5495 11.7338 17.6813 11.6387 17.754 11.5022L19.4515 8.31551Z" fill="#333333"/>
<path d="M34.8152 2.22859C35.0034 1.87535 35.5097 1.87535 35.6978 2.22859L37.3953 5.4153C37.468 5.55176 37.5998 5.64692 37.7522 5.67304L41.3289 6.28601C41.7265 6.35416 41.8839 6.84102 41.6013 7.12901L39.0772 9.70138C38.9678 9.81281 38.9168 9.96892 38.9392 10.1234L39.4554 13.6787C39.5131 14.0761 39.1026 14.3759 38.7417 14.2001L35.4755 12.6094C35.3373 12.5421 35.1758 12.5421 35.0376 12.6094L31.7714 14.2001C31.4104 14.3759 31 14.0761 31.0576 13.6787L31.5738 10.1234C31.5963 9.96892 31.5453 9.81281 31.4359 9.70138L28.9118 7.12901C28.6292 6.84102 28.7865 6.35416 29.1842 6.28601L32.7609 5.67304C32.9133 5.64692 33.0451 5.55176 33.1178 5.4153L34.8152 2.22859Z" fill="#333333"/>
<path d="M50.179 8.31551C50.3671 7.96227 50.8734 7.96227 51.0615 8.31551L52.759 11.5022C52.8317 11.6387 52.9635 11.7338 53.1159 11.76L56.6926 12.3729C57.0903 12.4411 57.2476 12.9279 56.965 13.2159L54.4409 15.7883C54.3315 15.8997 54.2805 16.0558 54.3029 16.2103L54.8191 19.7657C54.8768 20.163 54.4664 20.4628 54.1054 20.287L50.8392 18.6963C50.701 18.629 50.5395 18.629 50.4013 18.6963L47.1351 20.287C46.7741 20.4628 46.3637 20.163 46.4213 19.7657L46.9376 16.2103C46.96 16.0558 46.909 15.8997 46.7996 15.7883L44.2755 13.2159C43.9929 12.9279 44.1502 12.4411 44.5479 12.3729L48.1246 11.76C48.277 11.7338 48.4088 11.6387 48.4815 11.5022L50.179 8.31551Z" fill="#333333"/>
</g>
</svg>
